<?xml version="1.0" encoding="UTF-8" standalone="no"?>
<svg
   xmlns:dc="http://purl.org/dc/elements/1.1/"
   xmlns:cc="http://creativecommons.org/ns#"
   xmlns:rdf="http://www.w3.org/1999/02/22-rdf-syntax-ns#"
   xmlns:svg="http://www.w3.org/2000/svg"
   xmlns="http://www.w3.org/2000/svg"
   version="1.1"
   id="svg2"
   viewBox="0 0 2400 1800"
   height="1800"
   width="2400"
   class="t2-svg-root-editable">
  <metadata
     id="metadata17">
    <rdf:RDF>
      <cc:Work
         rdf:about="">
        <dc:format>image/svg+xml</dc:format>
        <dc:type
           rdf:resource="http://purl.org/dc/dcmitype/StillImage" />
      </cc:Work>
    </rdf:RDF>
  </metadata>
  <defs
     id="defs15" />
  <rect
     class="ember-view t2-design-background"
     height="100%"
     width="100%"
     fill-opacity="1"
     fill="white"
     id="ember4853">
    <!---->
  </rect>
  <rect
     class="ember-view t2-design-node cursor-default"
     transform="matrix(1 0 0 1 55.5640869140625 1333.2893605152321)"
     fill="#a80000"
     height="400.892578125"
     width="2288.871826171875"
     ry="0"
     rx="0"
     id="ember4869">
    <!---->
  </rect>
  <rect
     class="ember-view t2-design-node cursor-default"
     transform="matrix(1 0 0 1 55.5640869140625 45.25139664804476)"
     fill="#004b8a"
     height="1248.9305419921875"
     width="2288.8717346191406"
     ry="0"
     rx="0"
     id="ember4901">
    <!---->
  </rect>
  <g
     id="ember5255"
     style="font-style:normal;font-weight:bold;font-size:240px;font-family:Bitter;text-decoration:none;text-decoration-line:none;text-anchor:middle;fill:#ffffff"
     transform="matrix(1.0528333,0,0,0.9131444,2011.1732,308.87151)">
    <path
       id="path20"
       style="font-style:normal;font-weight:bold;font-size:240px;font-family:Bitter;text-decoration:none;text-decoration-line:none;text-anchor:middle;fill:#ffffff"
       d="m -195.11062,-140.88 0,115.44 q 0,32.64 -12.24,47.76 -12,15.36 -42.48,15.36 l -18.24,-1.68 3.12,-24 11.52,0 q 21.12,0 21.12,-23.04 l 0,-129.84 -18,-7.2 0,-19.92 73.2,-1.2 0,21.12 -18,7.2 z" />
    <path
       id="path22"
       style="font-style:normal;font-weight:bold;font-size:240px;font-family:Bitter;text-decoration:none;text-decoration-line:none;text-anchor:middle;fill:#ffffff"
       d="m -100.11562,-140.88 0,40.08 48.479995,0 0,26.4 -48.479995,0 0,46.32 42.479995,0 5.52,-19.92 22.08,0 0,48 -125.279995,0 0,-20.88 18,-6 0,-114 -18,-7.2 0,-19.92 55.2,-1.2 67.199995,0 0,46.32 -22.32,0 -6,-18 -38.879995,0 z" />
    <path
       id="path24"
       style="font-style:normal;font-weight:bold;font-size:240px;font-family:Bitter;text-decoration:none;text-decoration-line:none;text-anchor:middle;fill:#ffffff"
       d="m 70.033125,-20.88 0,20.88 -77.28,0 0,-20.88 q 6,-2.16 18,-6 l 0,-114 -18,-7.2 0,-19.92 55.2,-1.2 67.200005,0 0,45.6 -22.320005,0 -6,-17.28 -38.88,0 0,42.48 49.68,0 0,26.4 -49.68,0 0,45.12 q 18.72,5.04 22.08,6 z" />
    <path
       id="path26"
       style="font-style:normal;font-weight:bold;font-size:240px;font-family:Bitter;text-decoration:none;text-decoration-line:none;text-anchor:middle;fill:#ffffff"
       d="m 209.25187,-20.88 0,20.88 -77.28,0 0,-20.88 q 6,-2.16 18,-6 l 0,-114 -18,-7.2 0,-19.92 55.2,-1.2 67.20001,0 0,45.6 -22.32001,0 -6,-17.28 -38.88,0 0,42.48 49.68,0 0,26.4 -49.68,0 0,45.12 q 18.72,5.04 22.08,6 z" />
  </g>
  <g
     id="ember5934"
     style="font-style:normal;font-weight:bold;font-size:240px;font-family:Raleway;text-decoration:none;text-decoration-line:none;text-anchor:middle;fill:#ffffff"
     transform="matrix(1.6701834,0,0,3.0526677,1206.7039,1070.9497)">
    <path
       id="path29"
       style="font-style:normal;font-weight:bold;font-size:240px;font-family:Raleway;text-decoration:none;text-decoration-line:none;text-anchor:middle;fill:#ffffff"
       d="m -487.3425,0 0,-112.8 -43.92,84 -18,0 -43.92,-84 0,112.8 -33.12,0 0,-170.4 35.52,0 50.4,96.96 50.88,-96.96 35.28,0 0,170.4 -33.12,0 z" />
    <path
       id="path31"
       style="font-style:normal;font-weight:bold;font-size:240px;font-family:Raleway;text-decoration:none;text-decoration-line:none;text-anchor:middle;fill:#ffffff"
       d="m -345.92625,1.2 q -18.72,0 -34.08,-7.2 -15.12,-7.44 -26.16,-19.44 -10.8,-12.24 -16.8,-27.84 -6,-15.6 -6,-31.92 0,-17.04 6.24,-32.64 6.48,-15.6 17.52,-27.6 11.28,-12 26.64,-18.96 15.36,-7.2 33.36,-7.2 18.48,0 33.6,7.68 15.36,7.44 26.16,19.68 10.8,12.24 16.8,27.84 6,15.6 6,31.68 0,17.04 -6.24,32.64 -6.24,15.36 -17.28,27.36 -11.04,11.76 -26.4,18.96 -15.36,6.96 -33.36,6.96 z m -49.44,-86.4 q 0,11.04 3.36,21.36 3.36,10.32 9.6,18.24 6.48,7.92 15.6,12.72 9.36,4.8 21.12,4.8 12,0 21.12,-4.8 9.36,-5.04 15.6,-13.2 6.48,-8.16 9.6,-18.24 3.36,-10.32 3.36,-20.88 0,-11.04 -3.6,-21.36 -3.36,-10.32 -9.84,-18.24 -6.24,-7.92 -15.6,-12.48 -9.12,-4.8 -20.64,-4.8 -12,0 -21.36,5.04 -9.36,4.8 -15.6,12.96 -6.24,7.92 -9.6,18.24 -3.12,10.08 -3.12,20.64 z" />
    <path
       id="path33"
       style="font-style:normal;font-weight:bold;font-size:240px;font-family:Raleway;text-decoration:none;text-decoration-line:none;text-anchor:middle;fill:#ffffff"
       d="m -237.24,0 0,-170.4 75.36,0 q 11.76,0 21.6,5.04 10.08,4.8 17.28,12.96 7.2,7.92 11.28,18.24 4.08,10.08 4.08,20.4 0,16.56 -8.4,30.24 -8.16,13.44 -22.32,19.44 L -99.48,0 l -37.2,0 -34.8,-57.12 -32.64,0 0,57.12 -33.12,0 z m 33.12,-86.16 41.52,0 q 4.56,0 8.4,-2.16 4.08,-2.16 6.96,-5.76 2.88,-3.84 4.56,-8.88 1.68,-5.04 1.68,-10.8 0,-6 -1.92,-11.04 -1.92,-5.04 -5.28,-8.64 -3.12,-3.84 -7.44,-5.76 -4.08,-2.16 -8.4,-2.16 l -40.08,0 0,55.2 z" />
    <path
       id="path35"
       style="font-style:normal;font-weight:bold;font-size:240px;font-family:Raleway;text-decoration:none;text-decoration-line:none;text-anchor:middle;fill:#ffffff"
       d="m -77.865,0 0,-170.4 75.36,0 q 11.76,0 21.6,5.04 10.08,4.8 17.28,12.96 7.2,7.92 11.28,18.24 4.08,10.08 4.08,20.4 0,16.56 -8.4,30.24 -8.16,13.44 -22.32,19.44 L 59.895,0 l -37.2,0 -34.8,-57.12 -32.64,0 0,57.12 -33.12,0 z m 33.12,-86.16 41.52,0 q 4.56,0 8.4,-2.16 4.08,-2.16 6.96,-5.76 2.88,-3.84 4.56,-8.88 1.68,-5.04 1.68,-10.8 0,-6 -1.92,-11.04 -1.92,-5.04 -5.28,-8.64 -3.12,-3.84 -7.44,-5.76 -4.08,-2.16 -8.4,-2.16 l -40.08,0 0,55.2 z" />
    <path
       id="path37"
       style="font-style:normal;font-weight:bold;font-size:240px;font-family:Raleway;text-decoration:none;text-decoration-line:none;text-anchor:middle;fill:#ffffff"
       d="m 81.51,0 0,-170.4 33.12,0 0,170.4 -33.12,0 z" />
    <path
       id="path39"
       style="font-style:normal;font-weight:bold;font-size:240px;font-family:Raleway;text-decoration:none;text-decoration-line:none;text-anchor:middle;fill:#ffffff"
       d="m 251.4675,-125.76 q -1.68,-1.68 -6.24,-4.56 -4.32,-2.88 -10.8,-5.52 -6.24,-2.88 -13.68,-4.8 -7.44,-1.92 -15.12,-1.92 -13.68,0 -20.4,5.04 -6.72,5.04 -6.72,14.16 0,5.28 2.4,8.88 2.64,3.36 7.44,6 4.8,2.64 12,4.8 7.44,2.16 17.04,4.56 12.48,3.36 22.56,7.2 10.32,3.84 17.28,9.6 7.2,5.76 11.04,13.92 3.84,7.92 3.84,19.68 0,13.68 -5.28,23.52 -5.04,9.6 -13.92,15.6 -8.64,6 -20.16,8.88 -11.28,2.64 -23.76,2.64 -19.2,0 -37.92,-5.76 -18.72,-5.76 -33.6,-16.32 l 14.64,-28.56 q 2.16,2.16 7.68,5.76 5.76,3.36 13.44,6.96 7.68,3.36 17.04,5.76 9.36,2.4 19.2,2.4 27.36,0 27.36,-17.52 0,-5.52 -3.12,-9.36 -3.12,-3.84 -8.88,-6.72 -5.76,-2.88 -13.92,-5.28 -8.16,-2.4 -18.24,-5.28 -12.24,-3.36 -21.36,-7.2 -8.88,-4.08 -14.88,-9.36 -6,-5.52 -9.12,-12.48 -2.88,-7.2 -2.88,-17.04 0,-12.96 4.8,-23.04 4.8,-10.08 13.2,-16.8 8.64,-6.72 19.92,-10.08 11.28,-3.6 24.24,-3.6 18,0 33.12,5.76 15.12,5.52 26.4,13.2 l -14.64,26.88 z" />
    <path
       id="path41"
       style="font-style:normal;font-weight:bold;font-size:240px;font-family:Raleway;text-decoration:none;text-decoration-line:none;text-anchor:middle;fill:#ffffff"
       d="m 369.855,1.2 q -18.72,0 -34.08,-7.2 -15.12,-7.44 -26.16,-19.44 -10.8,-12.24 -16.8,-27.84 -6,-15.6 -6,-31.92 0,-17.04 6.24,-32.64 6.48,-15.6 17.52,-27.6 11.28,-12 26.64,-18.96 15.36,-7.2 33.36,-7.2 18.48,0 33.6,7.68 15.36,7.44 26.16,19.68 10.8,12.24 16.8,27.84 6,15.6 6,31.68 0,17.04 -6.24,32.64 -6.24,15.36 -17.28,27.36 -11.04,11.76 -26.4,18.96 -15.36,6.96 -33.36,6.96 z m -49.44,-86.4 q 0,11.04 3.36,21.36 3.36,10.32 9.6,18.24 6.48,7.92 15.6,12.72 9.36,4.8 21.12,4.8 12,0 21.12,-4.8 9.36,-5.04 15.6,-13.2 6.48,-8.16 9.6,-18.24 3.36,-10.32 3.36,-20.88 0,-11.04 -3.6,-21.36 -3.36,-10.32 -9.84,-18.24 -6.24,-7.92 -15.6,-12.48 -9.12,-4.8 -20.64,-4.8 -12,0 -21.36,5.04 -9.36,4.8 -15.6,12.96 -6.24,7.92 -9.6,18.24 -3.12,10.08 -3.12,20.64 z" />
    <path
       id="path43"
       style="font-style:normal;font-weight:bold;font-size:240px;font-family:Raleway;text-decoration:none;text-decoration-line:none;text-anchor:middle;fill:#ffffff"
       d="m 511.66125,-109.2 0,109.2 -33.12,0 0,-170.4 25.68,0 88.8,111.84 0,-111.6 33.12,0 0,170.16 -26.88,0 -87.6,-109.2 z" />
  </g>
  <g
     id="ember6005"
     style="font-style:normal;font-weight:bold;font-size:240px;font-family:Raleway;text-decoration:none;text-decoration-line:none;text-anchor:middle;fill:#ffffff"
     transform="matrix(0.67914679,0,0,0.6756821,600,279.88827)">
    <path
       id="path46"
       style="font-style:normal;font-weight:bold;font-size:240px;font-family:Raleway;text-decoration:none;text-decoration-line:none;text-anchor:middle;fill:#ffffff"
       d="m -642.00562,0 0,-170.4 61.92,0 q 20.87999,0 36.47999,6.72 15.84001,6.72 26.4,18.24 10.56001,11.52 15.84,27.12 5.28001,15.36 5.28001,32.88 0,19.44 -6,35.28 -5.76,15.6 -16.8,26.88 -11.04,11.04 -26.64,17.28 -15.36,6 -34.56,6 l -61.92,0 z m 112.56,-85.44 q 0,-12.24 -3.36,-22.56 -3.36,-10.32 -9.84,-17.76 -6.48001,-7.44 -16.08001,-11.52 -9.35999,-4.08 -21.35999,-4.08 l -28.8,0 0,112.32 28.8,0 q 12.23999,0 21.59999,-4.32 9.60001,-4.32 15.84001,-11.76 6.48,-7.68 9.84,-18 3.36,-10.32 3.36,-22.32 z" />
    <path
       id="path48"
       style="font-style:normal;font-weight:bold;font-size:240px;font-family:Raleway;text-decoration:none;text-decoration-line:none;text-anchor:middle;fill:#ffffff"
       d="m -351.65437,-29.04 0,29.04 -118.32,0 0,-170.4 116.16,0 0,29.04 -83.04,0 0,41.04 71.75999,0 0,26.88 -71.75999,0 0,44.4 85.2,0 z" />
    <path
       id="path50"
       style="font-style:normal;font-weight:bold;font-size:240px;font-family:Raleway;text-decoration:none;text-decoration-line:none;text-anchor:middle;fill:#ffffff"
       d="m -186.63937,0 0,-112.8 -43.92,84 -18,0 -43.92,-84 0,112.8 -33.12,0 0,-170.4 35.51999,0 50.40001,96.96 50.88,-96.96 35.28,0 0,170.4 -33.12,0 z" />
    <path
       id="path52"
       style="font-style:normal;font-weight:bold;font-size:240px;font-family:Raleway;text-decoration:none;text-decoration-line:none;text-anchor:middle;fill:#ffffff"
       d="m -45.223125,1.2 q -18.72,0 -34.08,-7.2 -15.12,-7.44 -26.159995,-19.44 -10.80001,-12.24 -16.80001,-27.84 -5.99999,-15.6 -5.99999,-31.92 0,-17.04 6.24,-32.64 6.47999,-15.6 17.52,-27.6 11.279995,-12 26.639995,-18.96 15.36,-7.2 33.36,-7.2 18.48,0 33.6,7.68 15.36,7.44 26.16,19.68 10.8,12.24 16.8,27.84 6,15.6 6,31.68 0,17.04 -6.24,32.64 -6.24,15.36 -17.28,27.36 -11.04,11.76 -26.4,18.96 -15.36,6.96 -33.36,6.96 z m -49.44,-86.4 q 0,11.04 3.36,21.36 3.36,10.32 9.6,18.24 6.48,7.92 15.6,12.72 9.36,4.8 21.12,4.8 12,0 21.12,-4.8 9.36,-5.04 15.6,-13.2 6.48,-8.16 9.6,-18.24 3.36,-10.32 3.36,-20.88 0,-11.04 -3.6,-21.36 -3.36,-10.32 -9.84,-18.24 -6.24,-7.92 -15.6,-12.48 -9.12,-4.8 -20.64,-4.8 -12,0 -21.36,5.04 -9.36,4.8 -15.6,12.96 -6.24,7.92 -9.6,18.24 -3.12,10.08 -3.12,20.64 z" />
    <path
       id="path54"
       style="font-style:normal;font-weight:bold;font-size:240px;font-family:Raleway;text-decoration:none;text-decoration-line:none;text-anchor:middle;fill:#ffffff"
       d="m 53.143125,-86.4 q 0,-15.6 5.52,-30.72 5.76,-15.36 16.56,-27.36 10.8,-12 26.400005,-19.44 15.59999,-7.44 35.51999,-7.44 23.52,0 40.56,10.32 17.28,10.32 25.68,26.88 l -25.44,17.52 q -3.36,-7.2 -8.16,-12 -4.8,-5.04 -10.32,-7.92 -5.52,-2.88 -11.52,-4.08 -6,-1.44 -11.75999,-1.44 -12.48,0 -21.84,5.04 -9.12001,5.04 -15.360005,13.2 -6,7.92 -9.12,18.24 -3.12,10.08 -3.12,20.16 0,11.28 3.6,21.84 3.6,10.32 10.080005,18.24 6.71999,7.92 15.84,12.72 9.36,4.8 20.39999,4.8 5.76,0 12,-1.44 6.24,-1.44 11.76001,-4.56 5.76,-3.12 10.55999,-7.92 4.8,-5.04 7.68,-12 l 27.12,15.6 q -4.08,9.6 -11.76,17.04 -7.44,7.2 -17.04,12.24 -9.35999,5.04 -20.16,7.68 -10.8,2.64 -21.12,2.64 -18.24,0 -33.35999,-7.68 -15.120005,-7.68 -26.160005,-19.92 -10.8,-12.48 -17.04,-28.08 -6,-15.84 -6,-32.16 z" />
    <path
       id="path56"
       style="font-style:normal;font-weight:bold;font-size:240px;font-family:Raleway;text-decoration:none;text-decoration-line:none;text-anchor:middle;fill:#ffffff"
       d="m 227.99437,0 0,-170.4 75.36,0 q 11.76,0 21.60001,5.04 10.07999,4.8 17.27999,12.96 7.2,7.92 11.28,18.24 4.08001,10.08 4.08001,20.4 0,16.56 -8.40001,30.24 -8.16,13.44 -22.32,19.44 l 38.88,64.08 -37.2,0 -34.8,-57.12 -32.64,0 0,57.12 -33.12,0 z m 33.12,-86.16 41.52,0 q 4.56001,0 8.4,-2.16 4.08,-2.16 6.96,-5.76 2.88,-3.84 4.56,-8.88 1.68,-5.04 1.68,-10.8 0,-6 -1.91999,-11.04 -1.92,-5.04 -5.28001,-8.64 -3.12,-3.84 -7.43999,-5.76 -4.08001,-2.16 -8.4,-2.16 l -40.08001,0 0,55.2 z" />
    <path
       id="path58"
       style="font-style:normal;font-weight:bold;font-size:240px;font-family:Raleway;text-decoration:none;text-decoration-line:none;text-anchor:middle;fill:#ffffff"
       d="m 433.03687,-170.4 29.28,0 64.80001,170.4 -34.08001,0 -15.84,-42.48 -59.52,0 -15.6,42.48 -34.08,0 65.04,-170.4 z m 38.16,104.64 -23.52,-66.96 -24.48,66.96 48,0 z" />
    <path
       id="path60"
       style="font-style:normal;font-weight:bold;font-size:240px;font-family:Raleway;text-decoration:none;text-decoration-line:none;text-anchor:middle;fill:#ffffff"
       d="m 656.37188,-141.36 -54.48,0 0,141.36 -32.88,0 0,-141.36 -54.48,0 0,-29.04 141.84,0 0,29.04 z" />
  </g>
  <g
     id="ember6037"
     style="font-style:normal;font-weight:normal;font-size:240px;font-family:Bitter;text-decoration:none;text-decoration-line:none;text-anchor:middle;fill:#ffffff"
     transform="matrix(0.95552105,0,0,0.95552105,1203.352,1610.6145)">
    <path
       id="path63"
       style="font-style:normal;font-weight:normal;font-size:240px;font-family:Bitter;text-decoration:none;text-decoration-line:none;text-anchor:middle;fill:#ffffff"
       d="m -965.86875,-148.8 0,80.4 q 0,35.28 -14.88,53.04 -14.88,17.76 -50.16005,17.76 -35.28,0 -49.92,-16.32 -14.64,-16.56 -14.64,-50.88 l 0,-84 -20.4,-4.8 0,-13.2 68.4,-1.2 0,14.4 -22.8,4.8 0,84 q 0,26.4 9.12,36.72 9.12,10.08 30.96,10.08 21.8401,0 30.48005,-11.04 8.64,-11.28 8.64,-39.36 l 0,-80.4 -22.79995,-4.8 0,-13.2 68.39995,-1.2 0,14.4 -20.4,4.8 z" />
    <path
       id="path65"
       style="font-style:normal;font-weight:normal;font-size:240px;font-family:Bitter;text-decoration:none;text-decoration-line:none;text-anchor:middle;fill:#ffffff"
       d="m -900.09375,-49.2 4.8,25.2 q 4.32,2.4 11.76,4.32 7.44,1.68 14.64,1.68 7.2,0 13.92,-1.68 6.72,-1.92 11.76,-5.28 5.04,-3.36 7.92,-7.92 3.12,-4.8 3.12,-10.8 0,-6.96 -3.84,-11.52 -3.84,-4.8 -10.08,-8.16 -6,-3.6 -13.68,-6.24 -7.68,-2.64 -15.6,-5.52 -8.4,-3.6 -16.32,-7.2 -7.68,-3.84 -13.92,-9.12 -6,-5.52 -9.6,-13.2 -3.6,-7.68 -3.6,-18.96 0,-12 4.56,-20.88 4.8,-8.88 12.48,-14.64 7.92,-5.76 18.24,-8.4 10.56,-2.88 22.08,-2.88 5.28,0 11.28,0.72 6,0.72 11.76,1.92 5.76,0.96 10.8,2.4 5.04,1.2 8.64,2.16 l 7.68,2.4 -1.2,40.8 -15.6,0 -8.16,-25.68 q -6.72,-2.16 -13.44,-3.12 -6.48,-0.96 -13.44,-0.96 -6.96,0 -12.72,1.92 -5.52,1.68 -9.6,4.8 -3.84,3.12 -6,6.96 -2.16,3.84 -2.16,7.92 0.24,10.08 6.72,15.84 6.48,5.76 16.08,9.84 9.6,4.08 20.64,7.68 11.28,3.6 20.64,9.12 9.6,5.28 15.84,13.92 6.48,8.64 6.48,22.56 0,12.48 -4.8,22.08 -4.8,9.6 -13.2,16.32 -8.4,6.48 -19.92,10.08 -11.52,3.36 -24.72,3.36 -5.28,0 -11.52,-0.72 -6,-0.72 -12,-1.92 -5.76,-0.96 -10.8,-2.16 -5.04,-1.44 -8.4,-2.64 l -6.72,-2.4 0,-42 19.2,0 z" />
    <path
       id="path67"
       style="font-style:normal;font-weight:normal;font-size:240px;font-family:Bitter;text-decoration:none;text-decoration-line:none;text-anchor:middle;fill:#ffffff"
       d="m -612.54375,-117.84 -6.48,-27.36 q -12.96,-4.8 -30.72,-4.8 -24.48,0 -37.44,17.76 -12.96,17.76 -12.96,49.68 0,32.16 13.92,47.76 14.16,15.6 37.68,15.6 5.28,0 11.28,-1.2 6.24,-1.2 12,-3.36 5.76,-2.4 10.56,-4.8 4.8,-2.64 7.92,-5.04 l 6.24,-4.8 9.6,15.6 q -5.28,5.28 -12.24,9.84 -6.72,4.56 -14.64,8.16 -7.68,3.36 -16.08,5.28 -8.4,1.92 -17.04,1.92 -36.72,0 -56.88,-21.12 -19.92,-21.36 -19.92,-62.16 0,-20.4 5.52,-36.96 5.76,-16.56 16.32,-28.08 10.56,-11.76 25.2,-18 14.88,-6.48 33.36,-6.48 5.52,0 12,0.96 6.72,0.72 12.96,2.16 6.48,1.44 12,3.12 5.76,1.44 9.36,2.88 l 7.68,2.88 -1.2,40.56 -18,0 z" />
    <path
       id="path69"
       style="font-style:normal;font-weight:normal;font-size:240px;font-family:Bitter;text-decoration:none;text-decoration-line:none;text-anchor:middle;fill:#ffffff"
       d="m -568.25625,-82.08 q 0,-20.16 5.28,-36.48 5.52,-16.32 15.84,-27.84 10.32,-11.76 24.48,-17.76 14.4,-6.24 31.92,-6.24 17.52,0 31.44,6 13.92,5.76 23.52,16.8 9.84,11.04 14.88,26.64 5.04,15.6 5.04,35.04 0,19.44 -5.76,35.76 -5.76,16.08 -16.32,27.84 -10.32,11.52 -24.96,18.24 -14.64,6.48 -32.4,6.48 -35.28,0 -54.24,-21.84 -18.72,-21.84 -18.72,-62.64 z m 76.8,-67.92 q -49.2,0 -49.2,66 0,66 46.8,66 24,0 37.2,-16.8 13.2,-16.8 13.2,-50.4 0,-64.8 -48,-64.8 z" />
    <path
       id="path71"
       style="font-style:normal;font-weight:normal;font-size:240px;font-family:Bitter;text-decoration:none;text-decoration-line:none;text-anchor:middle;fill:#ffffff"
       d="m -270.45,0 -79.2,-132.24 0,113.04 22.8,4.8 0,14.4 -64.8,0 0,-14.4 20.4,-4.8 0,-129.6 -20.4,-4.8 0,-13.2 50.4,-1.2 79.2,134.16 0,-114.96 -20.4,-4.8 0,-13.2 62.4,-1.2 0,14.4 -20.4,4.8 0,148.8 -30,0 z" />
    <path
       id="path73"
       style="font-style:normal;font-weight:normal;font-size:240px;font-family:Bitter;text-decoration:none;text-decoration-line:none;text-anchor:middle;fill:#ffffff"
       d="m -59.475,-63.36 0,51.36 q -0.24,0 -4.32,2.4 -4.08,2.16 -12,5.04 -7.68,2.64 -19.2,4.8 -11.28,2.16 -25.68,2.16 -36.72,0 -56.88,-21.12 -19.92,-21.36 -19.92,-62.16 0,-20.4 5.52,-36.96 5.76,-16.56 16.32,-28.08 10.56,-11.76 25.2,-18 14.88,-6.48 33.36,-6.48 5.52,0 12,0.96 6.72,0.72 12.96,2.16 6.48,1.44 12,3.12 5.76,1.44 9.36,2.88 l 7.68,2.88 -1.2,39.6 -15.6,0 -7.2,-26.4 q -14.88,-4.8 -32.4,-4.8 -24.48,0 -37.44,17.52 -12.96,17.52 -12.96,50.16 0,32.4 14.16,48.48 14.16,15.84 38.64,15.84 14.64,0 29.04,-4.56 l 4.56,-1.44 0,-39.36 -20.4,-4.8 0,-13.2 62.4,-1.2 0,14.4 -18,4.8 z" />
    <path
       id="path75"
       style="font-style:normal;font-weight:normal;font-size:240px;font-family:Bitter;text-decoration:none;text-decoration-line:none;text-anchor:middle;fill:#ffffff"
       d="m -21.80625,0 0,-14.4 20.4,-4.8 0,-129.6 -20.4,-4.8 0,-13.2 45.6,-1.2 26.4,0 q 25.44,0 39.6,11.52 14.4,11.52 14.4,31.68 0,35.28 -31.2,46.8 5.76,5.04 14.4,21.6 l 18.96,38.16 17.04,3.84 0,14.4 -36,0 -20.4,-44.4 q -8.4,-18 -14.64,-23.28 -6,-5.52 -17.76,-5.52 l -10.8,0 0,54 20.4,4.8 0,14.4 -66,0 z m 45.6,-148.8 0,57.6 18,0 q 17.52,0 27.36,-7.92 9.84,-7.92 9.84,-20.88 0,-13.2 -8.4,-20.88 -8.4,-7.92 -21.6,-7.92 l -25.2,0 z" />
    <path
       id="path77"
       style="font-style:normal;font-weight:normal;font-size:240px;font-family:Bitter;text-decoration:none;text-decoration-line:none;text-anchor:middle;fill:#ffffff"
       d="m 236.2875,-148.8 -51.6,0 0,51.6 55.2,0 0,19.2 -55.2,0 0,58.8 55.2,0 4.8,-24 15.6,0 0,43.2 -121.2,0 0,-14.4 20.4,-4.8 0,-129.6 -20.4,-4.8 0,-13.2 45.6,-1.2 73.2,0 0,40.8 -15.6,0 -6,-21.6 z" />
    <path
       id="path79"
       style="font-style:normal;font-weight:normal;font-size:240px;font-family:Bitter;text-decoration:none;text-decoration-line:none;text-anchor:middle;fill:#ffffff"
       d="m 310.6875,-49.2 4.8,25.2 q 4.32,2.4 11.76,4.32 7.44,1.68 14.64,1.68 7.2,0 13.92,-1.68 6.72,-1.92 11.76,-5.28 5.04,-3.36 7.92,-7.92 3.12,-4.8 3.12,-10.8 0,-6.96 -3.84,-11.52 -3.84,-4.8 -10.08,-8.16 -6,-3.6 -13.68,-6.24 -7.68,-2.64 -15.6,-5.52 -8.4,-3.6 -16.32,-7.2 -7.68,-3.84 -13.92,-9.12 -6,-5.52 -9.6,-13.2 -3.6,-7.68 -3.6,-18.96 0,-12 4.56,-20.88 4.8,-8.88 12.48,-14.64 7.92,-5.76 18.24,-8.4 10.56,-2.88 22.08,-2.88 5.28,0 11.28,0.72 6,0.72 11.76,1.92 5.76,0.96 10.8,2.4 5.04,1.2 8.64,2.16 l 7.68,2.4 -1.2,40.8 -15.6,0 -8.16,-25.68 q -6.72,-2.16 -13.44,-3.12 -6.48,-0.96 -13.44,-0.96 -6.96,0 -12.72,1.92 -5.52,1.68 -9.6,4.8 -3.84,3.12 -6,6.96 -2.16,3.84 -2.16,7.92 0.24,10.08 6.72,15.84 6.48,5.76 16.08,9.84 9.6,4.08 20.64,7.68 11.28,3.6 20.64,9.12 9.6,5.28 15.84,13.92 6.48,8.64 6.48,22.56 0,12.48 -4.8,22.08 -4.8,9.6 -13.2,16.32 -8.4,6.48 -19.92,10.08 -11.52,3.36 -24.72,3.36 -5.28,0 -11.52,-0.72 -6,-0.72 -12,-1.92 -5.76,-0.96 -10.8,-2.16 -5.04,-1.44 -8.4,-2.64 l -6.72,-2.4 0,-42 19.2,0 z" />
    <path
       id="path81"
       style="font-style:normal;font-weight:normal;font-size:240px;font-family:Bitter;text-decoration:none;text-decoration-line:none;text-anchor:middle;fill:#ffffff"
       d="m 454.125,-49.2 4.8,25.2 q 4.32,2.4 11.76,4.32 7.44,1.68 14.64,1.68 7.2,0 13.92,-1.68 6.72,-1.92 11.76,-5.28 5.04,-3.36 7.92,-7.92 3.12,-4.8 3.12,-10.8 0,-6.96 -3.84,-11.52 -3.84,-4.8 -10.08,-8.16 -6,-3.6 -13.68,-6.24 -7.68,-2.64 -15.6,-5.52 -8.4,-3.6 -16.32,-7.2 -7.68,-3.84 -13.92,-9.12 -6,-5.52 -9.6,-13.2 -3.6,-7.68 -3.6,-18.96 0,-12 4.56,-20.88 4.8,-8.88 12.48,-14.64 7.92,-5.76 18.24,-8.4 10.56,-2.88 22.08,-2.88 5.28,0 11.28,0.72 6,0.72 11.76,1.92 5.76,0.96 10.8,2.4 5.04,1.2 8.64,2.16 l 7.68,2.4 -1.2,40.8 -15.6,0 -8.16,-25.68 q -6.72,-2.16 -13.44,-3.12 -6.48,-0.96 -13.44,-0.96 -6.96,0 -12.72,1.92 -5.52,1.68 -9.6,4.8 -3.84,3.12 -6,6.96 -2.16,3.84 -2.16,7.92 0.24,10.08 6.72,15.84 6.48,5.76 16.08,9.84 9.6,4.08 20.64,7.68 11.28,3.6 20.64,9.12 9.6,5.28 15.84,13.92 6.48,8.64 6.48,22.56 0,12.48 -4.8,22.08 -4.8,9.6 -13.2,16.32 -8.4,6.48 -19.92,10.08 -11.52,3.36 -24.72,3.36 -5.28,0 -11.52,-0.72 -6,-0.72 -12,-1.92 -5.76,-0.96 -10.8,-2.16 -5.04,-1.44 -8.4,-2.64 l -6.72,-2.4 0,-42 19.2,0 z" />
    <path
       id="path83"
       style="font-style:normal;font-weight:normal;font-size:240px;font-family:Bitter;text-decoration:none;text-decoration-line:none;text-anchor:middle;fill:#ffffff"
       d="m 697.1625,0 0,-14.4 22.8,-4.8 0,-120 -7.2,18 -37.2,75.6 -19.2,1.2 -37.2,-78 -6,-16.8 0,120 22.8,4.8 0,14.4 -64.8,0 0,-14.4 20.4,-4.8 0,-129.6 -20.4,-4.8 0,-13.2 54,-1.2 43.44,96 45.36,-94.8 50.4,-1.2 0,14.4 -20.4,4.8 0,129.6 20.4,4.8 0,14.4 -67.2,0 z" />
    <path
       id="path85"
       style="font-style:normal;font-weight:normal;font-size:240px;font-family:Bitter;text-decoration:none;text-decoration-line:none;text-anchor:middle;fill:#ffffff"
       d="m 768.075,0 0,-14.4 19.68,-4.56 54.72,-147.84 24,-1.2 53.28,149.04 19.92,4.56 0,14.4 -69.6,0 0,-14.4 22.32,-4.56 -9.12,-26.64 -62.4,0 -9.36,26.64 22.56,4.56 0,14.4 -66,0 z m 84.48,-137.04 -25.2,72.24 49.44,0 -24.24,-72.24 z" />
    <path
       id="path87"
       style="font-style:normal;font-weight:normal;font-size:240px;font-family:Bitter;text-decoration:none;text-decoration-line:none;text-anchor:middle;fill:#ffffff"
       d="m 1066.8938,0 -79.20005,-132.24 0,113.04 22.79995,4.8 0,14.4 -64.79995,0 0,-14.4 20.4,-4.8 0,-129.6 -20.4,-4.8 0,-13.2 50.4,-1.2 79.20005,134.16 0,-114.96 -20.4,-4.8 0,-13.2 62.4,-1.2 0,14.4 -20.4,4.8 0,148.8 -30,0 z" />
  </g>
  <rect
     class="ember-view t2-design-node cursor-default"
     transform="matrix(1 0 0 1 141.038330078125 1170.020750589211)"
     fill="#ffffff"
     height="38.88427734375"
     width="2117.92333984375"
     ry="0"
     rx="0"
     id="ember6502">
    <!---->
  </rect>
  <rect
     class="ember-view t2-design-node cursor-default"
     transform="matrix(1 0 0 1 141.038330078125 424.02075058921105)"
     fill="#ffffff"
     height="38.88427734375"
     width="2117.92333984375"
     ry="0"
     rx="0"
     id="ember6538">
    <!---->
  </rect>
</svg>
